<svg xmlns='http://www.w3.org/2000/svg' style='font-size:initial;' viewBox="0 0 536.504 109.213" data-pikchr-date="20250319161943">
<text x="67.104" y="14.76" text-anchor="middle" font-family="monospace" fill="rgb(0,0,0)" font-size="125%" dominant-baseline="central">/directory/</text>
<text x="183.802" y="14.76" text-anchor="middle" font-family="monospace" fill="rgb(0,0,0)" font-size="125%" dominant-baseline="central">1001-1002&lt;UDIM&gt;</text>
<text x="262.123" y="14.76" text-anchor="middle" font-family="monospace" fill="rgb(0,0,0)" font-size="125%" dominant-baseline="central">_</text>
<text x="288.799" y="14.76" text-anchor="middle" font-family="monospace" fill="rgb(0,0,0)" font-size="125%" dominant-baseline="central">1-5#</text>
<text x="315.475" y="14.76" text-anchor="middle" font-family="monospace" fill="rgb(0,0,0)" font-size="125%" dominant-baseline="central">_</text>
<text x="342.151" y="14.76" text-anchor="middle" font-family="monospace" fill="rgb(0,0,0)" font-size="125%" dominant-baseline="central">file</text>
<text x="383.175" y="14.76" text-anchor="middle" font-family="monospace" fill="rgb(0,0,0)" font-size="125%" dominant-baseline="central">.tif</text>
<path d="M68.5798,76.8132L128.945,76.8132L128.945,46.5732L68.5798,46.5732Z"  style="fill:none;stroke-width:2.16;stroke:rgb(0,0,0);" />
<text x="98.7622" y="61.6932" text-anchor="middle" fill="rgb(0,0,0)" dominant-baseline="central">range</text>
<path d="M137.449,76.8132L243.778,76.8132L243.778,46.5732L137.449,46.5732Z"  style="fill:none;stroke-width:2.16;stroke:rgb(0,0,0);" />
<text x="190.613" y="61.6932" text-anchor="middle" fill="rgb(0,0,0)" dominant-baseline="central">inter-range</text>
<path d="M252.282,76.8132L312.647,76.8132L312.647,46.5732L252.282,46.5732Z"  style="fill:none;stroke-width:2.16;stroke:rgb(0,0,0);" />
<text x="282.465" y="61.6932" text-anchor="middle" fill="rgb(0,0,0)" dominant-baseline="central">range</text>
<path d="M321.151,76.8132L389.234,76.8132L389.234,46.5732L321.151,46.5732Z"  style="fill:none;stroke-width:2.16;stroke:rgb(0,0,0);" />
<text x="355.192" y="61.6932" text-anchor="middle" fill="rgb(0,0,0)" dominant-baseline="central">postfix</text>
<path d="M397.738,76.8132L449.924,76.8132L449.924,46.5732L397.738,46.5732Z"  style="fill:none;stroke-width:2.16;stroke:rgb(0,0,0);" />
<text x="423.831" y="61.6932" text-anchor="middle" fill="rgb(0,0,0)" dominant-baseline="central">stem</text>
<path d="M458.428,76.8132L534.344,76.8132L534.344,46.5732L458.428,46.5732Z"  style="fill:none;stroke-width:2.16;stroke:rgb(0,0,0);" />
<text x="496.386" y="61.6932" text-anchor="middle" fill="rgb(0,0,0)" dominant-baseline="central">suffixes</text>
<path d="M397.738,46.5732L323.057,32.4"  style="fill:none;stroke-width:2.16;stroke:rgb(0,0,0);" />
<polygon points="323.057,32.4 334.577,28.08 334.577,36.72" style="fill:rgb(0,0,0)"/>
<polygon points="361.246,32.4 349.726,36.72 349.726,28.08" style="fill:rgb(0,0,0)"/>
<path d="M328.817,32.4L355.486,32.4"  style="fill:none;stroke-width:2.16;stroke:rgb(0,0,0);" />
<path d="M361.246,32.4L449.924,46.5732"  style="fill:none;stroke-width:2.16;stroke:rgb(0,0,0);" />
<path d="M68.5798,46.5732L113.062,32.4"  style="fill:none;stroke-width:2.16;stroke:rgb(0,0,0);" />
<polygon points="113.062,32.4 124.582,28.08 124.582,36.72" style="fill:rgb(0,0,0)"/>
<polygon points="254.542,32.4 243.022,36.72 243.022,28.08" style="fill:rgb(0,0,0)"/>
<path d="M118.822,32.4L248.782,32.4"  style="fill:none;stroke-width:2.16;stroke:rgb(0,0,0);" />
<path d="M254.542,32.4L128.945,46.5732"  style="fill:none;stroke-width:2.16;stroke:rgb(0,0,0);" />
<path d="M137.449,46.5732L254.542,32.4"  style="fill:none;stroke-width:2.16;stroke:rgb(0,0,0);" />
<polygon points="254.542,32.4 262.26,29.5056 262.26,35.2944" style="fill:rgb(0,0,0)"/>
<polygon points="269.705,32.4 261.986,35.2944 261.986,29.5056" style="fill:rgb(0,0,0)"/>
<path d="M258.401,32.4L265.846,32.4"  style="fill:none;stroke-width:1.4472;stroke:rgb(0,0,0);" />
<path d="M269.705,32.4L243.778,46.5732"  style="fill:none;stroke-width:2.16;stroke:rgb(0,0,0);" />
<path d="M252.282,46.5732L269.705,32.4"  style="fill:none;stroke-width:2.16;stroke:rgb(0,0,0);" />
<polygon points="269.705,32.4 281.225,28.08 281.225,36.72" style="fill:rgb(0,0,0)"/>
<polygon points="307.894,32.4 296.374,36.72 296.374,28.08" style="fill:rgb(0,0,0)"/>
<path d="M275.465,32.4L302.134,32.4"  style="fill:none;stroke-width:2.16;stroke:rgb(0,0,0);" />
<path d="M307.894,32.4L312.647,46.5732"  style="fill:none;stroke-width:2.16;stroke:rgb(0,0,0);" />
<path d="M321.151,46.5732L307.894,32.4"  style="fill:none;stroke-width:2.16;stroke:rgb(0,0,0);" />
<polygon points="307.894,32.4 315.612,29.5056 315.612,35.2944" style="fill:rgb(0,0,0)"/>
<polygon points="323.057,32.4 315.338,35.2944 315.338,29.5056" style="fill:rgb(0,0,0)"/>
<path d="M311.753,32.4L319.198,32.4"  style="fill:none;stroke-width:1.4472;stroke:rgb(0,0,0);" />
<path d="M323.057,32.4L389.234,46.5732"  style="fill:none;stroke-width:2.16;stroke:rgb(0,0,0);" />
<path d="M458.428,46.5732L364.08,32.4"  style="fill:none;stroke-width:2.16;stroke:rgb(0,0,0);" />
<polygon points="364.08,32.4 375.6,28.08 375.6,36.72" style="fill:rgb(0,0,0)"/>
<polygon points="402.269,32.4 390.749,36.72 390.749,28.08" style="fill:rgb(0,0,0)"/>
<path d="M369.84,32.4L396.509,32.4"  style="fill:none;stroke-width:2.16;stroke:rgb(0,0,0);" />
<path d="M402.269,32.4L534.344,46.5732"  style="fill:none;stroke-width:2.16;stroke:rgb(0,0,0);" />
<text x="190.613" y="91.9332" text-anchor="middle" fill="rgb(0,0,0)" dominant-baseline="central">ranges</text>
<path d="M68.5798,76.8132L68.5798,107.053L312.647,107.053L312.647,76.8132L68.5798,76.8132"  style="fill:none;stroke-width:2.16;stroke-linejoin:round;stroke:rgb(0,0,0);" />
</svg>
